<?xml version="1.0" encoding="UTF-8"?>
<svg width="37.239mm" height="45mm" version="1.1" viewBox="0 0 37.239 45" xmlns="http://www.w3.org/2000/svg">
<g transform="translate(-82.272 -105)">
<path d="m103.92 150-21.651-12.5v-27l9.5263-5.5h24.249l3.4641 2v34z" fill="#fff"/>
<g transform="skewY(-30)" stroke-width=".26458" aria-label="1">
<path d="m115.85 204.23q0 1.0273-0.59267 1.62-0.59267 0.55316-1.5804 0.55316h-2.3707q-1.0273 0-1.62-0.55316-0.55316-0.59266-0.55316-1.62v-21.692q0-0.7112 0.47413-1.1458 0.47414-0.43462 0.86925-0.39511 0.39511 0 0.43462 0 0 0 0.31609 0 0.31609-0.0395 0.79022 0.39511 0.47413 0.43463 0.47413 1.1063v7.3096q0 2.0151 0.19756 2.5682 0.19755 0.55315 0.94827 1.3434l0.94826 0.90875q0.79022 0.7112 1.0273 1.3039 0.23707 0.59266 0.23707 2.6472z"/>
</g>
<g transform="skewY(30)" fill="#010101" stroke-width=".26458" aria-label="0">
<path d="m92.053 83.506q0.63218 0 1.0273 0 0.43462 0 0.63218 0 1.1458 0 1.3829-0.19756 0.27658-0.23707 0.27658-1.3039v-14.501q0-0.63218 0-1.0273 0-0.43462 0-0.63218 0-1.1853-0.23707-1.4224-0.19756-0.27658-1.2644-0.27658h-3.5165q-0.63218 0-1.0668 0-0.39511 0-0.59267 0-1.2248 0-1.4619 0.27658-0.23707 0.27658-0.23707 1.5804v14.145q0 0.43462 0 0.86924t0 0.67169q0 1.2644 0.23707 1.5409 0.23707 0.27658 1.4224 0.27658zm-8.3764 0.86924v-21.138q0-0.86924 0.63218-1.5014 0.67169-0.67169 1.5014-0.67169h10.787q0.79022 0 1.4619 0.63218 0.67169 0.63218 0.67169 1.5409v21.138q0 2.1731-2.1731 2.1731h-10.747q-2.1336 0-2.1336-2.1731z" fill="#010101"/>
</g>
<path d="m93.531 106 10.392 6 10.392-6 3.4641 2v8l-3.4641-2-6.9282 4v24l3.4641 2-6.9282 4-6.9282-4 3.4641-2v-24l-6.9282-4-3.4641 2v-8z" fill="#7137c8"/>
<path d="m103.92 116 13.856-8v8l-3.4641-2-6.9282 4v24l3.4641 2-6.9282 4z" fill="#442178"/>
<path d="m103.92 116 13.856-8-3.4641-2-10.392 6-10.392-6-3.4641 2z" fill="#8d5fd3"/>
</g>
</svg>
